# xmcd
#
# Track frame offsets:
#	150
#	15584
#	30606
#	47441
#	64816
#	79582
#	97388
#	116455
#	137607
#	150616
#
# Disc length: 2235 seconds
#
# Revision: 7
# Processed by: cddbd v1.5.2PL0 Copyright (c) Steve Scherf et al.
# Submitted via: EasyCDDAExtractor 15.3.0.1
#
DISCID=7708b90a
DTITLE=Alejandra Guzman - Soy
DYEAR=2001
DGENRE=Latin
TTITLE0=Diablo
TTITLE1=De Verdad
TTITLE2=Quiero Vivir
TTITLE3=Volvere A Amar
TTITLE4=Caramelo
TTITLE5=Todo
TTITLE6=Vagabundo Corazon
TTITLE7=Soy Tu Lluvia
TTITLE8=Abrazame
TTITLE9=Labios De Fuego
EXTD=
EXTT0=
EXTT1=
EXTT2=
EXTT3=
EXTT4=
EXTT5=
EXTT6=
EXTT7=
EXTT8=
EXTT9=
PLAYORDER=
